<svg xmlns="http://www.w3.org/2000/svg" viewBox="0 0 24 24"><path d="M19.636 5.256A19.712 19.712 0 0 0 15.097 4c-.214.345-.408.7-.581 1.063a18.768 18.768 0 0 0-5.037 0A10.842 10.842 0 0 0 8.897 4a19.85 19.85 0 0 0-4.542 1.26C1.483 9.082.705 12.81 1.093 16.485A19.158 19.158 0 0 0 6.66 19c.45-.545.85-1.124 1.192-1.73a12.395 12.395 0 0 1-1.877-.806c.157-.102.311-.208.46-.311A14.308 14.308 0 0 0 12 17.27c1.924 0 3.824-.382 5.565-1.118.15.11.304.216.46.311-.6.319-1.229.589-1.88.808.341.605.74 1.184 1.191 1.728a19.071 19.071 0 0 0 5.57-2.512c.457-4.263-.78-7.957-3.27-11.232m-11.29 8.97a1.985 1.985 0 0 1-1.982-1.976c0-1.09.865-1.983 1.978-1.983s2.002.894 1.983 1.983c-.02 1.09-.874 1.976-1.98 1.976m7.309 0a1.982 1.982 0 0 1-1.98-1.976c0-1.09.865-1.983 1.98-1.983 1.114 0 1.996.894 1.977 1.983-.019 1.09-.872 1.976-1.978 1.976"/></svg>