<svg xmlns="http://www.w3.org/2000/svg" viewBox="0 0 24 24"><path d="M22 6.012a7.912 7.912 0 0 1-2.357.676 4.27 4.27 0 0 0 1.804-2.374 8.011 8.011 0 0 1-2.606 1.042A4.015 4.015 0 0 0 15.846 4c-2.266 0-4.103 1.922-4.103 4.292 0 .336.037.664.107.977-3.41-.178-6.433-1.887-8.458-4.485a4.433 4.433 0 0 0-.554 2.16c0 1.488.723 2.802 1.824 3.57a3.958 3.958 0 0 1-1.858-.536v.054c0 2.08 1.414 3.815 3.291 4.208a3.934 3.934 0 0 1-1.853.074c.523 1.705 2.038 2.946 3.833 2.98A8.003 8.003 0 0 1 2 19.073 11.248 11.248 0 0 0 8.29 21c7.547 0 11.673-6.54 11.673-12.211 0-.186-.004-.371-.011-.555A8.573 8.573 0 0 0 22 6.012"/></svg>